<?xml version="1.0" encoding="UTF-8"?><svg id="b" xmlns="http://www.w3.org/2000/svg" width="92.99" height="53.23" viewBox="0 0 92.99 53.23"><g id="c"><path d="M13.53,0c7.21,0,11.73,4.64,11.73,10.99s-4.68,10.91-11.85,10.91S1.69,17.26,1.69,10.91,6.37,0,13.53,0ZM13.45,15.72c2.69,0,4.64-1.75,4.64-4.8s-1.91-4.72-4.6-4.72-4.64,1.75-4.64,4.8,1.91,4.72,4.6,4.72Z" fill="#333" stroke-width="0"/><path d="M36.55,14.86h-1.1v2.93c0,1.26,0,2.08-.53,2.81-.53.69-1.38,1.06-2.93,1.06s-2.4-.37-2.93-1.06c-.53-.73-.53-1.55-.53-2.81V4.4c0-1.26,0-2.81,2.16-3.62,1.06-.41,2.69-.61,5.17-.61,1.95,0,4.8.12,7.04,1.42,2,1.14,3.3,3.01,3.3,5.78,0,4.85-3.95,7.49-9.65,7.49ZM35.45,9.61s.41.08.94.08c1.55,0,2.73-.69,2.73-1.91s-1.1-1.75-2.77-1.75c-.45,0-.9.04-.9.04v3.54Z" fill="#333" stroke-width="0"/><path d="M56.53,7.74h2.65c1.3,0,2.2,0,2.89.45.73.49,1.06,1.22,1.06,2.52s-.33,2-1.06,2.48c-.69.45-1.59.45-2.89.45h-2.65v1.95h4.48c1.3,0,2.2,0,2.89.45.77.49,1.06,1.3,1.06,2.48,0,1.3-.33,2.04-1.06,2.52-.69.45-1.59.45-2.89.45h-7.9c-2.4,0-3.3-.85-3.3-3.3V3.79c0-2.4.9-3.3,3.3-3.3h7.37c1.3,0,2.2,0,2.89.45.77.49,1.06,1.3,1.06,2.48,0,1.3-.33,2.04-1.06,2.52-.69.45-1.59.45-2.89.45h-3.95v1.34Z" fill="#333" stroke-width="0"/><path d="M76.33,17.79c0,1.26,0,2.08-.53,2.81-.53.69-1.34,1.06-2.89,1.06s-2.4-.37-2.93-1.06c-.53-.73-.53-1.55-.53-2.81V2.97c0-1.63,1.18-2.73,3.99-2.73s3.75.98,4.56,2.04l6.23,8.14v-6.31c0-1.26.04-2.12.57-2.85.53-.69,1.34-1.02,2.89-1.02s2.36.33,2.89,1.02c.53.73.53,1.59.53,2.85v14.86c0,1.87-1.18,2.77-3.38,2.77-2.08,0-3.18-.81-4.03-1.87l-7.37-9.04v6.96Z" fill="#333" stroke-width="0"/><path d="M10.63,41.83c0,3.99-.04,6.15-3.34,9.32-1.79,1.71-2.69,2.08-3.66,2.08-2.16,0-3.62-1.87-3.62-3.46s1.51-2.2,2.28-3.05c1.22-1.26,1.22-3.05,1.22-4.97v-10.14c0-1.26,0-2.12.57-2.81.53-.69,1.42-1.06,3.01-1.06s2.44.37,2.97,1.06c.57.69.57,1.55.57,2.81v10.22Z" fill="#333" stroke-width="0"/><path d="M23.92,35.24h2.65c1.3,0,2.2,0,2.89.45.73.49,1.06,1.22,1.06,2.52s-.33,2-1.06,2.48c-.69.45-1.59.45-2.89.45h-2.65v1.95h4.48c1.3,0,2.2,0,2.89.45.77.49,1.06,1.3,1.06,2.48,0,1.3-.33,2.04-1.06,2.52-.69.45-1.59.45-2.89.45h-7.9c-2.4,0-3.3-.85-3.3-3.3v-14.41c0-2.4.9-3.3,3.3-3.3h7.37c1.3,0,2.2,0,2.89.45.77.49,1.06,1.3,1.06,2.48,0,1.3-.33,2.04-1.06,2.52-.69.45-1.59.45-2.89.45h-3.95v1.34Z" fill="#333" stroke-width="0"/><path d="M48.93,42.52c1.3,0,2.16,0,2.89.49.69.49,1.02,1.34,1.02,2.77s-.33,2.24-1.02,2.73c-.73.49-1.59.49-2.89.49h-7.78c-2.36,0-3.3-.85-3.3-3.3v-14.09c0-1.26,0-2.16.57-2.85.53-.69,1.38-1.02,2.97-1.02s2.48.33,3.01,1.02c.57.69.57,1.59.57,2.85v10.91h3.95Z" fill="#333" stroke-width="0"/><path d="M67.46,42.52c1.3,0,2.16,0,2.89.49.69.49,1.02,1.34,1.02,2.77s-.33,2.24-1.02,2.73c-.73.49-1.59.49-2.89.49h-7.78c-2.36,0-3.3-.85-3.3-3.3v-14.09c0-1.26,0-2.16.57-2.85.53-.69,1.38-1.02,2.97-1.02s2.48.33,3.01,1.02c.57.69.57,1.59.57,2.85v10.91h3.95Z" fill="#333" stroke-width="0"/><path d="M84.69,30.8c1.14-1.79,1.83-3.05,5.01-3.05,2.52,0,3.3.81,3.3,1.95,0,.77-.37,1.42-1.06,2.4l-6.51,9.24v3.95c0,1.26,0,2.12-.57,2.81-.53.69-1.38,1.06-2.97,1.06s-2.48-.37-3.01-1.06c-.57-.69-.57-1.55-.57-2.81v-3.95l-6.07-9c-.73-1.06-1.14-1.79-1.14-2.57,0-1.26,1.1-2.04,3.5-2.04,2.97,0,3.99,1.18,5.17,3.14l2.36,3.91,2.57-3.99Z" fill="#333" stroke-width="0"/></g></svg>