<?xml version="1.0" encoding="UTF-8"?><svg id="b" xmlns="http://www.w3.org/2000/svg" width="100" height="100" viewBox="0 0 100 100"><g id="c"><path d="M19.73,30.8c-.17.28-.35.47-.35.47l-1.87-1.17s.13-.25.27-.49c.55-.88,1.21-1.27,1.84-.88.64.4.62,1.25.11,2.07ZM15.75,42.48c-1.83-.23-3.06.81-3.27,2.47s.72,3,2.6,3.24c1.83.23,3.06-.81,3.27-2.47.21-1.66-.72-3-2.6-3.24ZM53.93.14c18.72.86,35.94,11.84,42.3,28.71,5.56,15.04,5.18,33.44-2.58,47.71-10.56,19.75-36.65,27.26-58.28,21.61C8.39,91.4-2.57,67.12.5,42.2,3.23,15.19,25.78-1.68,53.8.13h.13ZM60.98,23.44l4.36,2.27c.72.37,1.21.63,1.72.58.54-.06.93-.37,1.31-1.09.34-.65.42-1.18.13-1.67-.25-.45-.75-.7-1.47-1.08l-2.47-1.29.56-1.08,1.46.76c.72.37,1.21.63,1.72.58.54-.06.92-.35,1.3-1.07.37-.72.4-1.22.14-1.7-.25-.45-.75-.7-1.47-1.08l-1.46-.76.39-.74,2.18,1.13c.72.37,1.21.63,1.72.58.54-.06.93-.37,1.31-1.09.34-.65.42-1.18.13-1.67-.25-.45-.75-.7-1.47-1.08l-4.07-2.11c-1.33-.69-2.08-.45-2.77.87l-4.14,7.95c-.7,1.35-.45,2.08.87,2.77ZM52.74,24.04c.6.11,1.19-.02,2.47-.87,2.37-1.58,2.63-2.9,3.07-5.34l1.12-6.26c.14-.77.23-1.3-.04-1.78-.25-.48-.76-.8-1.7-.97-.97-.17-1.56-.05-1.96.32-.42.36-.52.89-.66,1.66l-1.11,6.21c-.21,1.17-.41,2.27-1.29,2.91-.57.44-1.56.67-1.73,1.62-.17.97.52,2.28,1.84,2.52ZM34.72,12.23l2.01,9c.17.77.28,1.26.7,1.63.42.35.98.46,1.92.25.94-.21,1.38-.54,1.61-1.03.22-.52.11-1.01-.06-1.78l-.94-4.23,5.7,4.49c.66.53,1.44.87,2.7.59,1.33-.3,1.93-1,1.68-2.14l-2.01-9.02c-.17-.77-.29-1.29-.71-1.66-.42-.35-.95-.44-1.89-.23-.94.21-1.39.52-1.62,1.01-.22.52-.13,1.04.04,1.81l.85,3.83-4.88-4.1c-.64-.53-1.41-.98-3.04-.62-1.71.38-2.27,1.21-2.05,2.2ZM16.36,38.06c-3.92-.49-7.14,1.93-7.7,6.38-.56,4.42,1.94,7.67,5.81,8.16,3.92.49,7.14-1.93,7.7-6.38.56-4.42-1.94-7.67-5.81-8.16ZM25,35.18c-.21-.52-.64-.79-1.31-1.21l-1.55-.97.36-.58c1.88-3.01,1.79-5.96-.77-7.56-1.46-.91-2.88-.84-4.14-.17-1.43.75-2.43,2.21-3.08,3.24-.82,1.31-1.25,2.24-1.38,2.93-.28,1.41.53,1.92,1.2,2.33l7.06,4.42c.67.42,1.1.68,1.66.65.54-.05,1.01-.38,1.53-1.2.51-.82.6-1.39.41-1.89ZM30.85,28.66l3.88-3.01c.64-.5,1.08-.84,1.25-1.32.17-.52.05-1-.44-1.64-.45-.58-.9-.87-1.47-.82-.51.04-.95.39-1.59.88l-2.2,1.71-.74-.96,1.3-1.01c.64-.5,1.08-.84,1.25-1.32.17-.52.07-.98-.43-1.62-.5-.64-.94-.88-1.48-.84-.51.04-.95.39-1.59.88l-1.3,1.01-.51-.66,1.94-1.51c.64-.5,1.08-.84,1.25-1.32.17-.52.05-1-.44-1.64-.45-.58-.9-.87-1.47-.82-.51.04-.95.38-1.59.88l-3.62,2.81c-1.18.92-1.28,1.7-.36,2.88l5.49,7.08c.93,1.2,1.7,1.28,2.88.36ZM70.81,65.13c-.61-3.5-2.37-6.56-5.36-9.3,5.45-2.45,4.02-11.27,1.18-16.08-3.51-5.95-10.06-8.97-16.64-8.95-6.58-.02-13.13,3-16.64,8.95-2.83,4.81-4.26,13.63,1.18,16.08-2.99,2.74-4.76,5.8-5.36,9.3-.63,3.64.05,7.33.71,10.89.09.48.18.95.26,1.43.2,1.11,1.26,1.85,2.37,1.65,1.11-.2,1.85-1.26,1.65-2.37-.09-.49-.18-.97-.27-1.46-1.18-6.36-2.12-11.47,3.49-16.53-.95,1.87-1.56,3.88-1.84,6.05-.44,3.33-.07,6.64.28,9.84.31,2.77.6,5.39.4,8.01-.08,1.13.76,2.11,1.89,2.19,1.12.08,2.11-.76,2.19-1.89.22-3-.1-5.93-.42-8.77-.68-6.15-1.27-11.48,3.29-16.77-1.89,5.73-1.57,11.42-1.27,16.95.26,4.74.51,9.22-.55,13.66-.26,1.1.41,2.2,1.51,2.46,1.1.26,2.2-.41,2.46-1.51,1.2-5.02.92-10.01.66-14.83-.34-6.07-.66-11.8,1.82-17.41.05-.12.09-.23.12-.35v5.91c0,10.64,0,21.28,0,31.92,0,1.13.91,2.04,2.04,2.04h0c1.13,0,2.04-.91,2.04-2.04,0-10.64,0-21.28,0-31.92v-5.91c.03.12.07.24.12.35,2.48,5.62,2.16,11.35,1.82,17.41-.27,4.82-.54,9.81.66,14.83.26,1.1,1.36,1.77,2.46,1.51,1.1-.26,1.77-1.36,1.51-2.46-1.06-4.44-.81-8.92-.55-13.66.31-5.53.62-11.22-1.27-16.95,4.57,5.29,3.98,10.61,3.29,16.77-.31,2.84-.64,5.77-.42,8.76.08,1.13,1.06,1.97,2.19,1.89,1.13-.08,1.97-1.06,1.89-2.19-.19-2.62.1-5.24.4-8.01.35-3.2.72-6.51.28-9.84-.28-2.17-.89-4.17-1.84-6.05,5.61,5.05,4.67,10.17,3.49,16.53-.09.48-.18.97-.27,1.46-.2,1.11.54,2.17,1.65,2.37,1.11.2,2.17-.54,2.37-1.65.09-.48.17-.96.26-1.43.66-3.56,1.34-7.25.71-10.89ZM75.97,33.18c.66-.59.92-1.1.85-1.62-.08-.54-.44-.94-.98-1.54l-1.65-1.82,5.03-4.55c.58-.53,1-.9,1.08-1.45.1-.53-.11-1.06-.79-1.81-.66-.73-1.17-.99-1.71-.95-.56.03-.97.4-1.55.93l-6.5,5.88c-1.13,1.02-1.13,1.81-.14,2.9l3.25,3.59c.54.6.9.99,1.43,1.13.51.12,1.03-.07,1.68-.67ZM78.22,43.07c.44.28.99.28,1.81-.06.82-.34,1.24-.72,1.35-1.24.11-.54-.09-1.03-.4-1.78l-.93-2.27,6.28-2.57c.73-.3,1.24-.51,1.51-1,.27-.47.26-1.04-.12-1.97-.37-.91-.76-1.33-1.29-1.47-.53-.16-1.05.05-1.77.34l-8.11,3.32c-1.41.58-1.68,1.32-1.12,2.68l1.83,4.48c.31.75.51,1.24.96,1.55ZM91.72,51.75c-.12-1.97-.93-2.35-2.09-2.99l-2.58-1.44,2.33-1.62c1.17-.81,1.86-1.49,1.75-3.33-.09-1.49-.62-2.14-1.4-2.09-.48.03-.92.31-1.55.81l-5.35,4.12-2.45.15c-.78.05-1.31.08-1.72.46-.41.36-.6.93-.54,1.91.06.99.32,1.5.77,1.8.45.33.98.29,1.77.24l2.45-.15,5.99,3.69c.63.39,1.05.59,1.53.56.71-.04,1.18-.56,1.09-2.12Z" fill="#000" stroke-width="0"/></g></svg>