<?xml version="1.0" encoding="UTF-8"?><svg id="b" xmlns="http://www.w3.org/2000/svg" width="136" height="40" viewBox="0 0 136 40"><g id="c"><rect x="0" y="0" width="136" height="40" rx="20" ry="20" fill="#333" stroke-width="0"/><path d="M38.07,14.63v-6.21c0-.32.18-.49.48-.49.27,0,.41.1.54.34l2.46,4.6,2.46-4.6c.13-.24.26-.34.53-.34.29,0,.46.17.46.49v6.21c0,.31-.16.49-.46.49s-.47-.18-.47-.49v-4.75l-2.1,3.88c-.11.2-.21.29-.42.29s-.34-.1-.44-.29l-2.1-3.86v4.73c0,.31-.16.49-.46.49s-.48-.18-.48-.49Z" fill="#eee" stroke-width="0"/><path d="M46.65,13.63c0-1.07.74-1.44,2.9-1.44h.34v-.26c0-.76-.3-1.07-1.03-1.07-.43,0-.88.1-1.38.35-.54.26-.78-.52-.27-.74.59-.27,1.18-.39,1.68-.39,1.33,0,1.96.62,1.96,1.96v2.57c0,.33-.17.51-.47.51s-.48-.18-.48-.51v-.37c-.24.56-.77.9-1.47.9-1.02,0-1.78-.65-1.78-1.51ZM49.89,13.09v-.27h-.33c-1.46,0-1.91.18-1.91.76,0,.5.37.85.98.85.72,0,1.26-.56,1.26-1.34Z" fill="#eee" stroke-width="0"/><path d="M52.27,12.62c0-1.56.85-2.53,2.15-2.53.73,0,1.34.34,1.62.89v-2.53c0-.33.18-.51.5-.51s.51.18.51.51v6.17c0,.33-.18.51-.5.51s-.5-.18-.5-.51v-.38c-.29.56-.89.91-1.63.91-1.29,0-2.15-.97-2.15-2.53ZM56.06,12.62c0-1.14-.55-1.74-1.38-1.74s-1.39.6-1.39,1.74.55,1.75,1.39,1.75,1.38-.61,1.38-1.75Z" fill="#eee" stroke-width="0"/><path d="M58.5,12.63c0-1.51.99-2.54,2.39-2.54s2.17.92,2.17,2.42c0,.22-.14.34-.4.34h-3.18c.08,1.01.64,1.52,1.61,1.52.4,0,.86-.09,1.27-.35.56-.33.88.34.38.67-.45.3-1.11.46-1.66.46-1.59,0-2.58-.96-2.58-2.52ZM59.49,12.23h2.72c-.04-.91-.49-1.43-1.28-1.43-.84,0-1.35.57-1.44,1.43Z" fill="#eee" stroke-width="0"/><path d="M68.61,14.68l-1.47-3.89c-.15-.4.03-.69.43-.69.24,0,.38.09.49.41l1.19,3.36,1.24-3.4c.09-.25.25-.37.5-.37s.41.12.5.37l1.22,3.42,1.22-3.4c.11-.3.27-.39.49-.39.4,0,.51.33.37.69l-1.47,3.89c-.12.3-.33.44-.6.44-.29,0-.5-.14-.61-.44l-1.15-3.11-1.14,3.11c-.11.3-.32.44-.6.44s-.49-.13-.61-.44Z" fill="#eee" stroke-width="0"/><path d="M76.09,8.52c0-.37.23-.57.63-.57s.63.2.63.57-.22.57-.63.57-.63-.21-.63-.57ZM76.22,14.56v-3.9c0-.35.18-.54.5-.54s.51.19.51.54v3.9c0,.35-.18.55-.51.55s-.5-.2-.5-.55Z" fill="#eee" stroke-width="0"/><path d="M79.23,13.31v-2.36h-.6c-.27,0-.42-.14-.42-.39s.15-.39.42-.39h.6v-1.03c0-.33.19-.51.51-.51s.5.18.5.51v1.03h1.17c.27,0,.42.15.42.39s-.15.39-.42.39h-1.17v2.28c0,.71.28,1.07.96,1.07.24,0,.41-.07.54-.08.14,0,.25.08.25.36,0,.21-.06.39-.25.45-.16.06-.48.11-.69.11-1.22,0-1.82-.64-1.82-1.83Z" fill="#eee" stroke-width="0"/><path d="M83.03,14.61v-6.17c0-.33.18-.51.5-.51s.51.18.51.51v2.48c.33-.55.93-.84,1.63-.84,1.16,0,1.73.65,1.73,1.96v2.57c0,.33-.18.51-.5.51s-.51-.18-.51-.51v-2.51c0-.84-.32-1.21-1.01-1.21-.81,0-1.34.55-1.34,1.4v2.32c0,.33-.18.51-.51.51s-.5-.18-.5-.51Z" fill="#eee" stroke-width="0"/><path d="M30.33,21.71c-.27-1.56-1.05-2.92-2.39-4.14,2.43-1.09,1.79-5.02.53-7.16-1.56-2.65-4.48-3.99-7.41-3.99-2.93,0-5.85,1.34-7.41,3.99-1.26,2.14-1.9,6.07.53,7.16-1.33,1.22-2.12,2.58-2.39,4.14-.28,1.62.02,3.26.32,4.85.04.21.08.42.12.64.09.49.56.82,1.06.74.49-.09.82-.56.74-1.06-.04-.22-.08-.43-.12-.65-.52-2.83-.95-5.11,1.55-7.36-.42.83-.69,1.73-.82,2.69-.19,1.48-.03,2.96.13,4.38.14,1.24.27,2.4.18,3.57-.04.5.34.94.84.97.5.04.94-.34.97-.84.1-1.33-.05-2.64-.19-3.9-.3-2.74-.57-5.11,1.47-7.47-.84,2.55-.7,5.09-.56,7.55.12,2.11.23,4.1-.25,6.08-.12.49.18.98.67,1.1.49.12.98-.18,1.1-.67.53-2.24.41-4.46.29-6.61-.15-2.7-.29-5.25.81-7.76.02-.05.04-.1.05-.16v2.63c0,4.74,0,9.48,0,14.21,0,.5.41.91.91.91h0c.5,0,.91-.41.91-.91,0-4.74,0-9.48,0-14.21v-2.63c.01.05.03.11.05.16,1.1,2.5.96,5.05.81,7.75-.12,2.15-.24,4.37.29,6.61.12.49.61.79,1.1.67.49-.12.79-.61.67-1.1-.47-1.98-.36-3.97-.24-6.08.14-2.46.28-5-.56-7.55,2.03,2.36,1.77,4.73,1.47,7.47-.14,1.26-.29,2.57-.19,3.9.04.5.47.88.97.84.5-.04.88-.47.84-.97-.09-1.17.04-2.33.18-3.57.16-1.42.32-2.9.13-4.38-.13-.97-.4-1.86-.82-2.69,2.5,2.25,2.08,4.53,1.55,7.36-.04.22-.08.43-.12.65-.09.49.24.97.74,1.06.49.09.97-.24,1.06-.74.04-.21.08-.43.12-.64.29-1.59.6-3.23.32-4.85Z" fill="#eee" stroke-width="0"/><path d="M42.87,20c3.38,0,5.49,2.17,5.49,5.15s-2.19,5.11-5.55,5.11-5.49-2.17-5.49-5.15,2.19-5.11,5.55-5.11ZM42.83,27.37c1.26,0,2.17-.82,2.17-2.25s-.9-2.21-2.16-2.21-2.17.82-2.17,2.25.9,2.21,2.16,2.21ZM53.65,26.96h-.52v1.37c0,.59,0,.97-.25,1.32-.25.32-.65.5-1.37.5s-1.13-.17-1.37-.5c-.25-.34-.25-.72-.25-1.32v-6.28c0-.59,0-1.32,1.01-1.7.5-.19,1.26-.29,2.42-.29.92,0,2.25.06,3.3.67.93.53,1.55,1.41,1.55,2.71,0,2.27-1.85,3.51-4.52,3.51ZM53.13,24.5s.19.04.44.04c.72,0,1.28-.32,1.28-.9s-.52-.82-1.3-.82c-.21,0-.42.02-.42.02v1.66ZM63.01,23.63h1.24c.61,0,1.03,0,1.35.21.34.23.5.57.5,1.18s-.15.93-.5,1.16c-.32.21-.74.21-1.35.21h-1.24v.92h2.1c.61,0,1.03,0,1.35.21.36.23.5.61.5,1.16,0,.61-.15.95-.5,1.18-.32.21-.74.21-1.35.21h-3.7c-1.13,0-1.55-.4-1.55-1.55v-6.75c0-1.13.42-1.55,1.55-1.55h3.45c.61,0,1.03,0,1.35.21.36.23.5.61.5,1.16,0,.61-.15.95-.5,1.18-.32.21-.74.21-1.35.21h-1.85v.63ZM72.29,28.34c0,.59,0,.97-.25,1.32-.25.32-.63.5-1.35.5s-1.13-.17-1.37-.5c-.25-.34-.25-.72-.25-1.32v-6.94c0-.76.55-1.28,1.87-1.28s1.75.46,2.14.95l2.92,3.82v-2.96c0-.59.02-.99.27-1.34.25-.32.63-.48,1.35-.48s1.11.15,1.35.48c.25.34.25.74.25,1.34v6.96c0,.88-.55,1.3-1.58,1.3-.97,0-1.49-.38-1.89-.88l-3.45-4.24v3.26ZM85.99,26.75c0,1.87-.02,2.88-1.56,4.37-.84.8-1.26.97-1.72.97-1.01,0-1.7-.88-1.7-1.62s.71-1.03,1.07-1.43c.57-.59.57-1.43.57-2.33v-4.75c0-.59,0-.99.27-1.32.25-.32.67-.5,1.41-.5s1.14.17,1.39.5c.27.32.27.72.27,1.32v4.79ZM92.22,23.66h1.24c.61,0,1.03,0,1.35.21.34.23.5.57.5,1.18s-.15.93-.5,1.16c-.32.21-.74.21-1.35.21h-1.24v.92h2.1c.61,0,1.03,0,1.35.21.36.23.5.61.5,1.16,0,.61-.15.95-.5,1.18-.32.21-.74.21-1.35.21h-3.7c-1.13,0-1.55-.4-1.55-1.55v-6.75c0-1.13.42-1.55,1.55-1.55h3.45c.61,0,1.03,0,1.35.21.36.23.5.61.5,1.16,0,.61-.15.95-.5,1.18-.32.21-.74.21-1.35.21h-1.85v.63ZM103.94,27.08c.61,0,1.01,0,1.35.23.32.23.48.63.48,1.3s-.15,1.05-.48,1.28c-.34.23-.74.23-1.35.23h-3.64c-1.11,0-1.55-.4-1.55-1.55v-6.6c0-.59,0-1.01.27-1.34.25-.32.65-.48,1.39-.48s1.16.15,1.41.48c.27.32.27.74.27,1.34v5.11h1.85ZM112.62,27.08c.61,0,1.01,0,1.35.23.32.23.48.63.48,1.3s-.15,1.05-.48,1.28c-.34.23-.74.23-1.35.23h-3.64c-1.11,0-1.55-.4-1.55-1.55v-6.6c0-.59,0-1.01.27-1.34.25-.32.65-.48,1.39-.48s1.16.15,1.41.48c.27.32.27.74.27,1.34v5.11h1.85ZM120.69,21.58c.53-.84.86-1.43,2.35-1.43,1.18,0,1.55.38,1.55.92,0,.36-.17.67-.5,1.13l-3.05,4.33v1.85c0,.59,0,.99-.27,1.32-.25.32-.65.5-1.39.5s-1.16-.17-1.41-.5c-.27-.32-.27-.72-.27-1.32v-1.85l-2.84-4.22c-.34-.5-.53-.84-.53-1.2,0-.59.52-.95,1.64-.95,1.39,0,1.87.55,2.42,1.47l1.11,1.83,1.2-1.87Z" fill="#eee" stroke-width="0"/></g></svg>