<?xml version="1.0" encoding="UTF-8"?><svg id="b" xmlns="http://www.w3.org/2000/svg" width="64.37" height="100" viewBox="0 0 64.37 100"><g id="c"><path d="M63.98,52.45c-.93-5.35-3.62-10.03-8.19-14.21,8.32-3.74,6.14-17.21,1.81-24.56C52.24,4.59,42.23-.02,32.18,0,22.14-.02,12.12,4.59,6.77,13.68c-4.33,7.35-6.52,20.82,1.81,24.56C4,42.42,1.31,47.1.38,52.45c-.96,5.56.08,11.19,1.09,16.64.13.73.27,1.46.4,2.19.3,1.7,1.92,2.83,3.62,2.52,1.7-.3,2.83-1.93,2.52-3.62-.13-.75-.27-1.49-.41-2.23-1.8-9.71-3.25-17.53,5.33-25.25-1.45,2.86-2.38,5.92-2.81,9.24-.67,5.09-.11,10.15.43,15.03.47,4.24.91,8.24.62,12.24-.13,1.72,1.16,3.22,2.88,3.34,1.72.13,3.22-1.16,3.34-2.88.34-4.58-.16-9.06-.64-13.39-1.04-9.4-1.94-17.53,5.03-25.61-2.89,8.75-2.4,17.45-1.94,25.9.4,7.24.78,14.08-.84,20.87-.4,1.68.63,3.36,2.31,3.76,1.68.4,3.36-.63,3.76-2.31,1.83-7.67,1.41-15.29,1-22.66-.51-9.27-1-18.02,2.79-26.61.08-.18.14-.36.18-.54v9.03c0,16.26,0,32.51,0,48.77,0,1.72,1.4,3.12,3.12,3.12h0c1.72,0,3.12-1.4,3.12-3.12,0-16.26,0-32.51,0-48.77v-9.03c.04.18.1.36.18.54,3.79,8.58,3.3,17.34,2.79,26.6-.41,7.37-.83,14.99,1,22.66.4,1.68,2.08,2.71,3.76,2.31,1.68-.4,2.71-2.08,2.31-3.76-1.62-6.79-1.24-13.63-.84-20.87.47-8.45.95-17.15-1.94-25.9,6.98,8.08,6.07,16.22,5.03,25.62-.48,4.33-.98,8.81-.64,13.39.13,1.72,1.62,3.01,3.34,2.88,1.72-.13,3.01-1.63,2.88-3.34-.3-4,.15-8,.62-12.24.54-4.89,1.1-9.94.43-15.04-.44-3.31-1.36-6.37-2.81-9.24,8.58,7.72,7.13,15.54,5.33,25.25-.14.74-.27,1.48-.41,2.23-.3,1.7.83,3.32,2.52,3.62,1.7.3,3.32-.83,3.62-2.52.13-.73.27-1.46.4-2.19,1.01-5.45,2.05-11.08,1.09-16.64Z" fill="#fff" stroke-width="0"/></g></svg>